<svg width="80" height="81" viewBox="0 0 80 81" fill="none" xmlns="http://www.w3.org/2000/svg">
<path d="M45 42.0047C45 45.6866 42.0152 48.6714 38.3333 48.6714C34.6514 48.6714 31.6666 45.6866 31.6666 42.0047C31.6666 38.3228 34.6514 35.338 38.3333 35.338C42.0152 35.338 45 38.3228 45 42.0047Z" fill="#087EA4"/>
<path fill-rule="evenodd" clip-rule="evenodd" d="M38.3333 16.1752C37.7908 15.7393 37.2487 15.3262 36.7081 14.9367C31.2484 11.0031 25.3423 9.09056 20.8334 11.6938C16.3244 14.2971 15.0277 20.3682 15.7044 27.0632C15.7714 27.7261 15.8582 28.4021 15.9644 29.0899C15.3156 29.3419 14.6867 29.6048 14.0791 29.8782C7.94267 32.6396 3.33331 36.7982 3.33331 42.0047C3.33331 47.2112 7.94267 51.3697 14.0791 54.1312C14.6867 54.4046 15.3156 54.6675 15.9644 54.9194C15.8582 55.6073 15.7714 56.2833 15.7044 56.9462C15.0277 63.6412 16.3244 69.7123 20.8334 72.3156C25.3423 74.9188 31.2484 73.0063 36.7081 69.0727C37.2487 68.6832 37.7908 68.2701 38.3334 67.8342C38.8759 68.2701 39.4181 68.6832 39.9586 69.0727C45.4183 73.0063 51.3244 74.9188 55.8334 72.3156C60.3423 69.7123 61.6391 63.6412 60.9623 56.9462C60.8953 56.2833 60.8085 55.6072 60.7023 54.9194C61.3511 54.6675 61.9799 54.4046 62.5875 54.1312C68.724 51.3697 73.3333 47.2112 73.3333 42.0047C73.3333 36.7982 68.724 32.6396 62.5875 29.8782C61.9799 29.6048 61.3511 29.3419 60.7023 29.09C60.8085 28.4021 60.8953 27.7261 60.9623 27.0632C61.6391 20.3682 60.3423 14.2971 55.8334 11.6938C51.3244 9.09056 45.4183 11.0031 39.9586 14.9367C39.4181 15.3262 38.8759 15.7393 38.3333 16.1752ZM54.1667 14.5806C56.8321 16.1195 58.2996 20.2606 57.6458 26.728C57.6042 27.1402 57.554 27.5591 57.4954 27.9841C54.4921 27.0683 51.1675 26.365 47.623 25.9145C45.4606 23.0702 43.1893 20.5426 40.8945 18.3996C41.2333 18.1363 41.5709 17.8835 41.9072 17.6412C47.1812 13.8414 51.5013 13.0417 54.1667 14.5806ZM38.3334 20.5709C36.7666 22.0094 35.1962 23.6538 33.6573 25.4812C35.1882 25.3867 36.7492 25.338 38.3333 25.338C39.9174 25.338 41.4785 25.3867 43.0094 25.4812C41.4705 23.6538 39.9001 22.0094 38.3334 20.5709ZM29.0437 25.9145C25.4992 26.365 22.1747 27.0683 19.1713 27.9841C19.1127 27.5591 19.0625 27.1402 19.0209 26.728C18.3671 20.2606 19.8346 16.1195 22.5 14.5806C25.1654 13.0417 29.4855 13.8414 34.7596 17.6412C35.0958 17.8835 35.4334 18.1363 35.7722 18.3996C33.4774 20.5426 31.2061 23.0701 29.0437 25.9145ZM26.3617 29.6933C25.5143 30.9719 24.6916 32.2995 23.8996 33.6714C23.1076 35.0432 22.3692 36.4195 21.6856 37.7926C20.8724 35.5461 20.2335 33.3639 19.7711 31.2878C21.8003 30.6502 24.0096 30.1124 26.3617 29.6933ZM23.3849 42.0047C24.3626 39.8053 25.4971 37.5711 26.7863 35.338C28.0756 33.105 29.4433 31.0054 30.8591 29.0589C33.2527 28.806 35.7549 28.6714 38.3333 28.6714C40.9118 28.6714 43.414 28.806 45.8076 29.0589C47.2234 31.0054 48.5911 33.105 49.8804 35.338C51.1696 37.5711 52.3041 39.8053 53.2818 42.0047C52.3041 44.2041 51.1696 46.4383 49.8804 48.6714C48.5911 50.9044 47.2234 53.004 45.8076 54.9504C43.414 55.2034 40.9118 55.338 38.3333 55.338C35.7548 55.338 33.2527 55.2034 30.8591 54.9504C29.4433 53.004 28.0756 50.9044 26.7863 48.6714C25.4971 46.4383 24.3626 44.2041 23.3849 42.0047ZM19.7541 42.0047C18.3719 38.7098 17.3187 35.4791 16.6101 32.4202C16.2128 32.5819 15.8249 32.7479 15.447 32.918C9.51921 35.5855 6.66665 38.9269 6.66665 42.0047C6.66665 45.0825 9.51921 48.4239 15.447 51.0914C15.8249 51.2615 16.2128 51.4275 16.6102 51.5892C17.3187 48.5303 18.3719 45.2996 19.7541 42.0047ZM19.7712 52.7216C20.2335 50.6455 20.8724 48.4633 21.6856 46.2168C22.3692 47.5899 23.1076 48.9662 23.8996 50.338C24.6916 51.7099 25.5143 53.0375 26.3617 54.316C24.0096 53.897 21.8003 53.3592 19.7712 52.7216ZM19.1713 56.0253C19.1127 56.4503 19.0625 56.8692 19.0209 57.2814C18.3671 63.7488 19.8346 67.8899 22.5 69.4288C25.1654 70.9677 29.4855 70.168 34.7596 66.3682C35.0958 66.1259 35.4334 65.8731 35.7722 65.6098C33.4774 63.4667 31.2061 60.9392 29.0437 58.0948C25.4992 57.6443 22.1747 56.9411 19.1713 56.0253ZM40.8945 65.6098C41.2333 65.8731 41.5709 66.1259 41.9072 66.3682C47.1812 70.168 51.5013 70.9677 54.1667 69.4288C56.8321 67.8899 58.2996 63.7488 57.6458 57.2814C57.6042 56.8691 57.554 56.4503 57.4954 56.0253C54.4921 56.9411 51.1675 57.6443 47.623 58.0948C45.4606 60.9392 43.1893 63.4667 40.8945 65.6098ZM43.0095 58.5281C41.4705 60.3556 39.9001 62 38.3334 63.4385C36.7666 62 35.1962 60.3556 33.6572 58.5281C35.1882 58.6227 36.7492 58.6714 38.3333 58.6714C39.9174 58.6714 41.4785 58.6227 43.0095 58.5281ZM50.3051 54.316C52.6571 53.897 54.8664 53.3592 56.8955 52.7216C56.4332 50.6455 55.7943 48.4633 54.9811 46.2168C54.2975 47.5899 53.5591 48.9662 52.7671 50.338C51.9751 51.7099 51.1524 53.0374 50.3051 54.316ZM56.9127 42.0047C58.2948 45.2996 59.348 48.5303 60.0565 51.5892C60.4539 51.4274 60.8417 51.2615 61.2196 51.0914C67.1474 48.4239 70 45.0825 70 42.0047C70 38.9269 67.1474 35.5855 61.2196 32.918C60.8417 32.7479 60.4539 32.5819 60.0566 32.4202C59.348 35.4791 58.2948 38.7098 56.9127 42.0047ZM56.8956 31.2878C54.8664 30.6502 52.6571 30.1124 50.305 29.6933C51.1524 30.9719 51.9751 32.2995 52.7671 33.6714C53.5592 35.0432 54.2975 36.4195 54.9811 37.7926C55.7943 35.5461 56.4332 33.3639 56.8956 31.2878Z" fill="#087EA4"/>
</svg>
